<svg width="197" height="69" viewBox="0 0 197 69" fill="none" xmlns="http://www.w3.org/2000/svg">
<path d="M168.857 0.00872292V68.408H197V28.1429C197 12.6019 184.398 0 168.857 0V0.00872292ZM187.215 17.9654C187.756 17.9654 188.288 18.1224 188.741 18.4276L190.416 19.5613L188.741 20.6951C188.288 21.0003 187.756 21.166 187.215 21.166H186.884C186.343 21.166 185.811 21.009 185.358 20.7038L183.683 19.5701L185.358 18.4363C185.811 18.1311 186.343 17.9654 186.884 17.9654H187.215ZM178.991 14.0496C179.131 13.2996 179.497 12.6106 180.038 12.0699L181.459 10.6397C182 10.099 182.689 9.7327 183.439 9.58444L186.23 9.04373L185.698 11.8345C185.55 12.5845 185.192 13.2734 184.651 13.8142L183.23 15.2444C182.689 15.7851 182 16.1514 181.25 16.2997L178.459 16.8404L178.991 14.0496ZM174.701 6.65417L175.834 4.97972L176.968 6.65417C177.273 7.10766 177.439 7.63965 177.439 8.18035V8.51175C177.439 9.05246 177.282 9.58445 176.977 10.0379L175.843 11.7124L174.709 10.0379C174.404 9.58445 174.238 9.05246 174.238 8.51175V8.18035C174.238 7.63965 174.395 7.10766 174.701 6.65417ZM172.599 24.5759H193.259V27.0004H172.599V24.5759ZM182.977 40.3785L191.34 32.015L191.637 32.3115L191.611 32.4772C191.262 36.079 189.012 39.2186 185.707 40.7012L182.977 41.9309L180.099 40.614C176.837 39.1227 174.613 36.0267 174.247 32.4598L174.23 32.3202L174.578 31.9714L182.977 40.3698V40.3785ZM181.119 34.6836V33.2883C181.119 32.7563 181.311 32.2418 181.66 31.8057C182.288 31.0295 183.666 31.0295 184.294 31.8057C184.651 32.2418 184.834 32.7563 184.834 33.2883V34.6836C184.834 35.2156 184.643 35.7302 184.294 36.1662L182.977 37.7971L181.66 36.1662C181.302 35.7302 181.119 35.2156 181.119 34.6836ZM191.724 59.1288H189.143L184.503 63.7684V62.8003C184.503 61.5271 185.209 60.3497 186.334 59.7567L187.512 59.1375H181.346L176.706 63.7771V62.8091C176.706 61.5358 177.413 60.3584 178.538 59.7654L179.698 59.1462H174.125V57.4194H179.654L178.564 56.8526C177.422 56.2596 176.706 55.0822 176.706 53.7915V52.8409L181.276 57.4107H187.442L186.352 56.8439C185.209 56.2508 184.494 55.0735 184.494 53.7828V52.8322L189.064 57.402H191.707V59.1288H191.724ZM193.268 48.4804H172.607V46.0559H193.268V48.4804Z" fill="#005761"/>
<path d="M144.351 56.3125C142.703 56.5916 139.877 56.5741 137.139 56.5741H121.842C120.865 56.4084 120.473 55.7282 120.534 55.3444C120.926 55.327 121.327 55.4229 121.781 55.4753C123.124 55.6322 124.458 55.1177 125.383 54.1322C125.906 53.5741 126.473 53.0334 126.918 52.7892V52.5973C120.987 51.9781 110.365 45.228 104.749 47.4606C102.83 48.2281 100.885 50.8793 100.484 52.5014L100.597 52.6235C101.81 51.5944 102.499 50.9839 104.714 50.8095C109.894 50.3909 114.638 53.234 119.444 54.8037C118.31 55.7805 117.237 56.5741 111.507 56.5741H93.4287C92.0246 56.5654 89.8007 56.6875 88.2658 55.1264C86.5827 53.4171 87.0536 50.949 87.0536 49.5449V47.6176H86.4693C85.5274 49.013 84.1408 51.6206 80.7221 51.638H80.007C77.9488 51.638 76.5447 51.5944 74.4778 49.7455H74.2947C74.2075 51.4723 73.7627 52.5624 72.7162 54.359C74.3557 55.8328 76.004 56.1817 77.9837 56.2602V56.6264C77.6959 61.3184 72.5941 65.3039 62.6172 65.0859V65.2865C63.1056 65.4696 63.7509 65.7748 64.5271 66.1934C65.5213 66.708 67.0388 67.7981 67.7801 68.0336C68.5213 68.2691 69.2975 68.3912 70.1086 68.3912C71.6435 68.3912 73.0476 67.9115 74.3296 66.9435C75.6116 65.9754 76.6319 64.5452 77.3994 62.6527C78.1232 60.8736 78.4982 58.7457 78.5418 56.2776C78.9256 56.2776 79.318 56.2863 79.7192 56.2863C79.7192 56.2863 79.7192 56.2863 79.7279 56.2863C84.6815 56.2863 86.0507 52.4578 86.0507 50.1293L86.164 50.1118C86.164 50.1118 86.1466 50.6002 86.1466 50.8967C86.1466 52.4839 85.5885 56.8794 87.8472 59.33C89.3211 60.9347 91.2571 61.0742 93.2368 61.0742H108.97C114.446 61.0742 117.359 58.3096 118.964 56.2863C119.339 55.7805 119.697 55.5276 120.045 55.4055C120.063 57.8561 120.717 61.0655 124.258 61.0655C124.502 61.0655 140.54 61.0655 140.54 61.0655C144.735 59.4782 147.281 53.6962 147.281 51.795V37.1174L144.342 39.1233V56.2863L144.351 56.3125Z" fill="white"/>
<path d="M65.1028 32.1112C66.786 32.1112 68.129 31.6751 69.1145 30.8117C70.1 29.9396 70.6581 28.7536 70.7802 27.2361L70.9023 27.2187C71.068 27.9251 71.1901 28.2129 71.2076 28.8931C71.2076 28.9454 71.2076 29.1983 71.2076 29.2681C71.068 33.9688 66.3499 38.2857 56.373 38.713V38.9136C56.8963 39.0619 57.5504 39.3235 58.3527 39.6985C59.3731 40.1433 60.9603 41.1288 61.7191 41.3206C62.4778 41.5038 63.2627 41.5735 64.0737 41.5212C65.6087 41.4253 66.9779 40.8497 68.1901 39.8032C69.4023 38.7566 70.3442 37.2653 70.9634 35.3205C71.539 33.524 71.7744 31.3699 71.7657 29.0762C71.7657 28.9978 71.7744 28.6053 71.7744 28.4396C71.7744 26.3204 71.539 24.489 71.0593 22.9628C70.5884 21.4279 69.9081 20.2505 69.0186 19.4308C68.129 18.611 67.0651 18.2011 65.8441 18.2011C64.7278 18.2011 63.7336 18.5935 62.8702 19.361C62.0069 20.1372 61.3441 21.175 60.8731 22.4831C60.6202 23.1808 60.4371 23.9047 60.3237 24.6634C60.2103 25.3262 60.1667 25.9977 60.1667 26.7041C60.1667 28.4745 60.5679 29.8175 61.3877 30.742C62.1987 31.6577 63.4371 32.1286 65.1116 32.1286L65.1028 32.1112ZM60.8731 24.8901C60.8731 24.8465 60.8731 24.7942 60.8906 24.7506C60.9429 24.4192 61.1173 24.0616 61.4574 23.6866C61.8499 23.2593 62.3731 22.893 63.0272 22.5965C63.6813 22.3 64.379 22.1517 65.129 22.1517C66.3674 22.1517 67.5098 22.4046 68.3645 23.1285C69.2192 23.8611 70.1523 25.5529 70.4837 26.9396H65.3121C64.2482 26.9396 62.0243 27.0355 61.3179 26.2594C60.9429 25.8495 60.847 25.3524 60.8818 24.8814L60.8731 24.8901Z" fill="white"/>
<path d="M76.8587 32.9126H82.414C86.9664 32.9126 86.7745 28.3253 86.0594 26.2061L86.1902 26.1451C87.7251 30.6451 89.2426 32.9039 92.8706 32.9039L107.313 32.8952C112.51 32.8428 115.362 30.2963 116.984 28.3166C116.984 28.3166 117.595 27.5404 117.987 27.0085C118.013 27.0172 118.214 27.1305 118.502 27.2352C118.519 29.6858 119.165 32.9039 122.714 32.9039C122.941 32.9039 123.281 32.9039 123.324 32.9039C124.197 32.8864 124.894 32.651 125.435 32.1888C126.002 31.7091 126.42 31.151 126.7 30.5143C126.979 29.8777 127.258 29.0841 127.519 28.1422C127.545 28.0288 127.598 27.8457 127.676 27.5753C127.755 27.305 127.833 27.0782 127.903 26.9038L128.069 26.9212C127.868 27.8282 127.781 28.6044 127.807 29.2498C127.851 30.0172 128.165 30.7236 128.784 31.3603C129.394 31.9969 130.197 32.5027 131.182 32.8603C132.098 33.2004 133.24 33.3748 135.019 33.401C135.159 33.401 135.307 33.401 135.455 33.401C135.455 33.401 135.778 33.026 136.153 32.3545C136.642 31.4649 137.208 30.0608 137.208 28.3079H137.365C137.479 29.8428 137.871 30.994 138.543 31.7527C138.848 32.0928 139.214 32.3545 139.607 32.5289C139.912 32.6597 140.226 32.7295 140.549 32.7295C140.749 32.7295 141.953 32.18 142.397 31.7004C145.485 29.4242 147.29 25.0549 147.29 23.459V8.53725L144.351 10.5431V27.959C143.601 28.0899 142.895 28.1596 142.083 28.1858C140.915 28.2468 140.243 28.0811 139.624 27.6625C139.572 27.6276 139.511 27.584 139.458 27.5404C138.787 27.0346 138.185 26.1974 137.644 25.0201C137.409 24.5404 137.182 24.1043 136.956 23.7206C136.694 23.2671 136.441 22.8834 136.197 22.5694C136.031 22.3601 135.865 22.1683 135.7 22.0026C135.421 21.7148 135.133 21.4967 134.845 21.3572C134.4 21.1305 133.903 21.0171 133.354 21.0171C132.717 21.0171 132.168 21.2089 131.644 21.488C130.676 21.9938 129.883 22.6828 129.272 23.4154C128.653 24.1392 128.2 24.8892 127.903 25.5259C127.868 25.6218 127.825 25.7177 127.79 25.8049C127.624 26.1625 127.467 26.4765 127.284 26.7468C127.153 26.9474 127.022 27.1218 126.883 27.2701C126.525 27.6712 126.115 27.9503 125.67 28.0899C125.278 28.212 124.798 28.2817 124.223 28.2992C124.127 28.2992 123.952 28.2992 123.944 28.2992C123.194 28.3079 121.415 28.334 120.743 28.334C119.627 28.334 119.086 27.8021 118.999 27.3747C119.051 27.3835 119.103 27.3922 119.156 27.4009C120.499 27.5579 121.833 27.0433 122.758 26.0579C123.281 25.4997 123.848 24.959 124.293 24.7148V24.5229C118.362 23.9037 108.385 17.2583 102.76 19.4909C100.842 20.2583 98.8968 22.9095 98.4956 24.5317L98.609 24.6538C99.8212 23.6247 100.51 23.0142 102.725 22.8398C107.862 22.4212 113.801 25.4125 117.42 26.8079C116.356 27.6974 115.092 28.3864 109.833 28.3951H92.199C90.481 28.3951 88.9374 27.3835 88.2484 25.8137L84.1757 16.6827C84.1146 16.6827 82.1262 18.6013 82.1262 18.6013C82.1262 18.6013 85.5623 25.6916 85.7454 26.1363C85.9111 26.5375 84.9257 28.3951 83.2076 28.3951H73.7017V28.648C74.8703 29.4416 76.161 30.7847 76.85 32.9213L76.8587 32.9126ZM132.307 24.3136C133.136 24.3136 133.886 24.5055 134.566 24.8979C134.793 25.02 134.993 25.1596 135.176 25.2991C135.569 25.5956 135.9 25.9358 136.162 26.3195C136.249 26.4503 136.328 26.5724 136.397 26.7032C136.624 27.1218 136.737 27.5317 136.737 27.9154V28.334C136.589 28.3951 136.415 28.4561 136.223 28.5085C135.9 28.5957 135.508 28.6567 135.028 28.6742C134.435 28.6916 133.711 28.6306 132.813 28.4387C130.903 28.0463 129.551 27.2614 128.592 25.866C129.264 24.7497 130.798 24.3136 132.307 24.3136Z" fill="white"/>
<path d="M50.5382 53.7997C50.5382 53.7997 50.5382 54.7677 50.5382 54.7939C50.5993 56.3811 50.8086 57.6456 51.1749 58.5875C51.5499 59.5468 52.0731 60.2358 52.7534 60.6457C53.4249 61.0643 54.2621 61.1166 55.2738 61.1166H55.2912C56.7651 61.1166 57.9337 61.1166 59.1895 60.9771C59.1895 60.9771 59.6779 60.916 60.0442 60.8637C62.1634 60.5585 63.2012 60.1748 63.707 59.9742C65.0326 59.4509 66.053 58.4741 66.7594 57.2358C67.2391 56.3985 67.492 55.5613 67.492 55.5613C68.085 53.7473 68.2245 51.8112 67.8931 49.9362L67.492 47.6426L64.614 49.7967C64.614 49.7967 66.4542 53.477 66.6286 54.9944C66.6896 55.5439 66.5937 55.8753 66.1402 56.0061C65.9309 56.0671 65.1983 56.1543 64.4745 56.2503C61.5529 56.634 57.611 56.5904 56.5906 56.5904C55.4569 56.5904 54.6022 56.4247 54.0179 55.7881C53.4423 55.1514 53.1545 54.1659 53.1545 52.8229V43.7443L50.2068 45.7501V47.5379C46.8318 49.2821 44.2242 50.7386 42.6631 53.3026C42.1835 54.0962 41.1631 58.0555 41.1631 58.0555C41.1631 58.0555 41.5032 58.8579 43.1864 58.8579C44.2155 58.8579 45.1922 58.8753 45.7416 58.8753C46.9888 58.8753 48.2795 58.4741 49.0033 57.6631C49.7359 56.852 50.1894 55.5613 50.3725 53.7997H50.5295H50.5382ZM49.3696 54.1834C48.951 54.3927 48.5149 54.4973 46.1864 54.4973C45.0352 54.4973 43.6748 54.5061 42.9509 54.1136C42.9509 54.1136 43.4567 52.8316 45.0527 51.7938C46.0033 51.1659 47.983 49.8054 50.2068 48.6891V52.2124C50.2068 52.6485 50.1719 53.2938 49.8405 53.7648C49.7184 53.9305 49.5615 54.0787 49.3609 54.1747L49.3696 54.1834Z" fill="white"/>
<path d="M151.842 39.1582V62.0597C153.56 60.8998 154.781 57.9259 154.781 54.3677V37.1524L151.842 39.1582Z" fill="white"/>
<path d="M111.853 36.7113L108.449 40.1154L111.853 43.5194L115.257 40.1154L111.853 36.7113Z" fill="white"/>
<path d="M154.79 25.9979V8.52957L151.851 10.5354V33.6898C153.56 32.5386 154.79 29.5648 154.79 25.9979Z" fill="white"/>
<path d="M42.4716 41.4693V41.6263H49.4659C50.5386 41.6263 51.5241 41.0856 52.1345 40.2047C52.527 39.6379 52.9892 39.2193 53.4253 38.9227V38.7658H44.46C44.024 40.1088 43.2042 40.9635 42.4629 41.4693H42.4716Z" fill="white"/>
<path d="M16.7618 45.1759C16.3257 46.519 15.5059 47.3736 14.7646 47.8794V48.0364H21.7589C22.8316 48.0364 23.8171 47.4957 24.4276 46.6149C24.82 46.048 25.2822 45.6294 25.7183 45.3329V45.1759H16.7531H16.7618Z" fill="white"/>
<path d="M52.2042 65.0333C51.7681 66.3764 50.9483 67.2311 50.207 67.7369V67.8939H57.2013C58.274 67.8939 59.2595 67.3532 59.87 66.4723C60.2624 65.9055 60.7246 65.4869 61.1607 65.1903V65.0333H52.1954H52.2042Z" fill="white"/>
<path d="M80.8355 65.0333C80.3994 66.3764 79.5797 67.2311 78.8384 67.7369V67.8939H85.8327C86.9054 67.8939 87.8908 67.3532 88.5013 66.4723C88.8938 65.9055 89.356 65.4869 89.792 65.1903V65.0333H80.8268H80.8355Z" fill="white"/>
<path d="M43.7623 32.9128C43.7623 32.9128 43.771 32.9128 43.7797 32.9128H47.1024C49.4571 32.9128 51.7944 32.6425 54.088 32.1192C55.3874 29.7122 56.7915 28.3692 57.0793 28.0814L57.0444 27.8982C55.2566 28.5436 52.0822 28.3953 49.2827 28.3953C46.71 28.1599 42.9861 25.5871 42.8814 24.4272C42.8204 23.7819 44.2158 21.6191 49.2827 21.6191C53.024 21.6191 53.1985 22.3778 53.1985 23.3197H53.399C53.556 22.8138 53.6345 22.2906 53.6345 21.7673C53.6345 20.6946 53.2769 19.84 52.5705 19.1859C51.8641 18.5405 50.8612 18.2091 49.5879 18.2091C46.8408 18.2091 42.3843 19.9882 42.3843 24.8546C42.3843 26.4767 42.9163 27.7064 43.5791 28.3953H32.2418C30.5237 28.3953 28.8318 28.125 27.7068 27.9244C27.2969 28.9622 26.6341 30.4448 25.6922 31.718V31.9186C26.2504 32.0843 26.8783 32.2239 27.5498 32.3285C28.2213 32.4419 29.2155 32.5814 30.515 32.7384C34.1778 33.1919 34.8842 33.3838 35.7651 33.7588C36.3145 33.9942 36.5848 34.0204 36.5848 34.3431C36.5848 34.7791 36.1401 34.9448 35.268 35.3809C34.3959 35.8169 33.079 36.1832 31.2999 36.4885C29.5208 36.7937 24.7765 36.9507 22.2125 36.9507C13.5089 36.9507 5.98265 35.9303 0 31.8489V32.3808L3.36633 38.5902C3.36633 38.5902 9.3577 41.6164 21.4887 41.6164C24.2881 41.6164 29.233 41.3199 31.1865 40.7443C33.14 40.16 34.6139 39.3228 35.6168 38.2501C36.5848 37.2123 37.0732 36.0001 37.0994 34.3605C37.0994 34.2908 37.0994 34.2297 37.0994 34.1599C37.0994 33.6628 37.0209 33.2791 36.768 32.9216H43.7448L43.7623 32.9128Z" fill="white"/>
</svg>
