<?xml version="1.0" encoding="UTF-8"?>
<svg version="1.1" xmlns="http://www.w3.org/2000/svg" width="512" height="512">
<path d="M0 0 C7.67044799 5.74987214 12.16652794 12.28980119 16.72265625 20.60546875 C20.63890876 27.76505878 20.63890876 27.76505878 26.83984375 32.95703125 C31.30125694 34.09128884 34.40620553 33.76634594 38.52734375 31.89453125 C50.83299653 24.28325712 57.14345948 13.71415757 62.59765625 0.77734375 C63.52734375 -1.10546875 63.52734375 -1.10546875 65.52734375 -3.10546875 C72.11673418 -4.09387731 72.11673418 -4.09387731 75.2109375 -1.92578125 C83.40954952 6.97556894 85.72354163 17.79751641 85.71484375 29.45703125 C85.71548828 30.34293945 85.71613281 31.22884766 85.71679688 32.14160156 C85.66250741 38.91051124 85.03331966 45.2789942 83.52734375 51.89453125 C84.18605469 52.13945313 84.84476562 52.384375 85.5234375 52.63671875 C116.91249421 65.78012091 156.76589624 93.51447847 170.7421875 125.69140625 C172.6351458 130.86311118 173.71942037 135.90515974 174.45800781 141.33837891 C176.78908566 158.17275305 184.76742271 170.11583093 195.52734375 182.89453125 C226.2479551 219.77238533 226.2479551 219.77238533 224.52734375 241.89453125 C222.54875994 249.37977603 216.61869806 254.7011796 210.48828125 259.05078125 C206.66169412 262.22368462 205.79053791 266.0448444 204.52734375 270.70703125 C202.49701837 277.44919301 200.43977014 282.70479046 195.52734375 287.89453125 C191.43457761 292.65842302 189.42908609 295.67490387 189.3515625 302.0859375 C189.32771484 303.11396484 189.30386719 304.14199219 189.27929688 305.20117188 C189.23687322 307.34420899 189.20533179 309.48749371 189.18554688 311.63085938 C188.93968562 320.8306443 186.92963354 329.39561491 180.48046875 336.30078125 C171.79209475 343.39049443 159.61971099 347.21032916 148.52734375 347.89453125 C147.38458984 347.97380859 147.38458984 347.97380859 146.21875 348.0546875 C132.19649232 348.54557323 115.87906635 346.27070621 104.71484375 337.33203125 C97.6333881 330.57529843 95.24228775 321.97562509 93.30078125 312.62109375 C92.09559471 308.37250684 90.59571918 305.60678154 86.90234375 303.14453125 C80.41193622 300.74067661 74.807505 300.02898911 68.3671875 302.8984375 C59.14142062 307.89327944 54.5982934 317.19679551 51.52734375 326.89453125 C47.85517331 341.58321302 51.67096707 359.42615985 57.84375 372.97265625 C58.85537332 375.81676297 58.41936386 378.0698009 57.52734375 380.89453125 C55.02734375 382.33203125 55.02734375 382.33203125 51.52734375 382.89453125 C41.45895344 377.04128053 36.45047601 366.30992663 32.52734375 355.89453125 C28.44355034 357.24625972 26.15050856 358.96389367 23.21484375 362.08203125 C20.37679535 365.02833025 17.5304577 367.82091192 14.40234375 370.45703125 C4.92950171 378.67058674 -3.44646036 389.46433109 -4.84375 402.3046875 C-4.99191723 410.45388491 -4.00246557 416.57602614 -0.56640625 423.9921875 C0.64341732 427.20254075 0.87485346 429.49183204 0.52734375 432.89453125 C-1.47265625 434.89453125 -1.47265625 434.89453125 -4.7890625 435.3125 C-10.53497556 434.66052471 -12.38338623 431.42319025 -15.97265625 427.171875 C-26.71861729 413.40361242 -31.22010234 401.27617171 -29.47265625 383.89453125 C-27.4828219 374.4175236 -22.07064298 367.25109924 -16.265625 359.73046875 C-15.68546631 358.97781738 -15.10530762 358.22516602 -14.50756836 357.44970703 C-13.33451084 355.93472836 -12.15451549 354.4250917 -10.96704102 352.92138672 C-6.15867595 346.75681612 -3.98715086 342.25339694 -4.15234375 334.3359375 C-4.62912287 330.70195027 -6.04914925 328.5873168 -8.47265625 325.89453125 C-9.78426171 325.18607283 -11.11517164 324.51053267 -12.47265625 323.89453125 C-12.68019531 324.41660156 -12.88773438 324.93867188 -13.1015625 325.4765625 C-16.50364487 333.60455009 -20.8578922 341.20306472 -26.84765625 347.70703125 C-36.49123075 358.37373894 -44.41402845 371.66662025 -43.8125 386.48828125 C-43.31890464 389.98316334 -42.26140018 393.21852347 -41.14453125 396.55859375 C-40.20310467 399.83169312 -40.18478256 402.5120154 -40.47265625 405.89453125 C-41.47265625 406.89453125 -41.47265625 406.89453125 -44.59765625 407.39453125 C-50.13239715 406.68037113 -52.10861436 404.16167164 -55.47265625 399.89453125 C-63.75659184 389.04427392 -68.20033286 375.91775071 -72.9921875 363.2734375 C-73.42490967 362.13398682 -73.85763184 360.99453613 -74.3034668 359.82055664 C-75.14312789 357.59777526 -75.97453054 355.37184996 -76.79614258 353.14233398 C-82.64841348 337.55678714 -91.04299786 325.02772532 -102.97265625 313.51953125 C-111.82250555 304.9392596 -119.72871518 295.2177666 -122.47265625 282.89453125 C-122.64925781 282.105625 -122.82585937 281.31671875 -123.0078125 280.50390625 C-125.07511496 268.89921678 -122.49883057 258.44838869 -119.60717773 247.22192383 C-117.27851002 238.0061539 -116.02112556 230.61211218 -120.47265625 221.89453125 C-133.54953058 235.92825004 -139.78071855 253.92380825 -139.43408203 273.01953125 C-138.43938839 291.32530948 -129.86572627 307.3054077 -116.53515625 319.6953125 C-115.23857625 320.83243407 -113.93242573 321.95873071 -112.6171875 323.07421875 C-108.48256763 326.58375037 -104.48042542 330.24161664 -100.47265625 333.89453125 C-99.58578125 334.69890625 -98.69890625 335.50328125 -97.78515625 336.33203125 C-87.49184596 347.73813184 -79.21771944 364.34338584 -79.47265625 379.89453125 C-81.12265625 380.55453125 -82.77265625 381.21453125 -84.47265625 381.89453125 C-88.22097852 379.11751336 -90.83744373 376.31400166 -93.53515625 372.51953125 C-103.23342045 359.33117861 -113.77433865 347.86217759 -126.72265625 337.76953125 C-131.24204595 334.19672238 -134.89372289 330.39578885 -138.47265625 325.89453125 C-139.53613281 324.62029297 -139.53613281 324.62029297 -140.62109375 323.3203125 C-156.9638568 302.87791435 -163.81327724 276.00784751 -160.97265625 250.1171875 C-157.72541825 223.35021202 -146.83355361 199.80969416 -132.52978516 177.16772461 C-128.25263504 170.26318228 -125.80133609 164.08463723 -126.47265625 155.89453125 C-127.35480512 153.01238238 -127.35480512 153.01238238 -128.47265625 150.89453125 C-130.32595932 150.89566871 -130.32595932 150.89566871 -132.47265625 151.89453125 C-134.2038425 154.07720131 -135.68411324 156.17404623 -137.16015625 158.51953125 C-137.59513428 159.19322754 -138.0301123 159.86692383 -138.47827148 160.56103516 C-139.8257505 162.66254515 -141.15223964 164.77593021 -142.47265625 166.89453125 C-142.86678711 167.52294922 -143.26091797 168.15136719 -143.66699219 168.79882812 C-146.35851351 173.11355093 -148.94062898 177.48458376 -151.47265625 181.89453125 C-151.84777344 182.54083496 -152.22289062 183.18713867 -152.609375 183.85302734 C-168.66451529 211.77828628 -178.51567639 245.98584784 -170.33154297 278.04101562 C-168.58884055 284.15182967 -166.10461461 289.9588112 -163.44921875 295.72265625 C-162.47265625 298.89453125 -162.47265625 298.89453125 -163.30859375 301.81640625 C-163.88480469 302.84507812 -163.88480469 302.84507812 -164.47265625 303.89453125 C-167.36908623 304.51079295 -168.67901401 304.6941793 -171.47265625 303.89453125 C-184.68038202 293.58832696 -190.4152042 274.92712934 -192.47265625 258.89453125 C-193.26236674 244.29572643 -192.1133299 230.24533507 -189.47265625 215.89453125 C-190.03662109 216.136875 -190.60058594 216.37921875 -191.18164062 216.62890625 C-193.77258761 217.73233985 -196.37229452 218.81348199 -198.97265625 219.89453125 C-199.85953125 220.27609375 -200.74640625 220.65765625 -201.66015625 221.05078125 C-207.17526797 223.32170961 -211.49577595 224.64837201 -217.47265625 223.89453125 C-219.87242681 220.29487541 -220.13539717 219.14209808 -219.47265625 214.89453125 C-217.68621663 212.01053038 -215.47249817 209.55005634 -213.22265625 207.01953125 C-211.92426294 205.50240924 -210.62874332 203.98282367 -209.3359375 202.4609375 C-208.35681396 201.31455811 -208.35681396 201.31455811 -207.35791016 200.14501953 C-202.44738659 194.28316946 -197.98980204 188.06060943 -193.47265625 181.89453125 C-192.94285156 181.17652344 -192.41304687 180.45851562 -191.8671875 179.71875 C-182.0811417 166.44598954 -172.99247336 152.82523354 -164.47265625 138.70703125 C-164.11075195 138.10737549 -163.74884766 137.50771973 -163.37597656 136.88989258 C-161.23736466 133.30066001 -159.29743703 129.65243917 -157.47265625 125.89453125 C-158.16230469 125.96671875 -158.85195312 126.03890625 -159.5625 126.11328125 C-175.54890258 127.69218521 -175.54890258 127.69218521 -180.03515625 125.83203125 C-181.47265625 123.89453125 -181.47265625 123.89453125 -182.03515625 120.39453125 C-181.47265625 116.89453125 -181.47265625 116.89453125 -179.50390625 115.46484375 C-176.30498773 113.80767204 -173.10099666 112.16159467 -169.88720703 110.53344727 C-161.02956213 106.0138309 -153.14530385 101.26187366 -145.47265625 94.89453125 C-144.68882568 94.25064453 -144.68882568 94.25064453 -143.88916016 93.59375 C-138.11006622 88.83751971 -132.50176279 83.9459535 -127.03515625 78.83203125 C-117.29673637 69.93798304 -106.52324001 63.087781 -94.96875 56.8046875 C-89.39394309 54.22225308 -89.39394309 54.22225308 -85.47265625 49.89453125 C-85.26151104 48.02558257 -85.05484513 46.15594623 -84.87792969 44.28344727 C-83.35787053 28.48130764 -78.45608042 13.93672861 -66.47265625 2.89453125 C-46.58480415 -12.06725287 -20.89363246 -14.23884565 0 0 Z M-58.47265625 22.89453125 C-67.43252945 35.39618963 -65.67783521 50.56798151 -63.47265625 64.89453125 C-63.28960937 65.75691406 -63.1065625 66.61929688 -62.91796875 67.5078125 C-60.99077419 77.83689912 -62.013657 88.32155049 -67.98046875 97.1171875 C-69.12795732 98.58757402 -70.29850066 100.04018209 -71.48828125 101.4765625 C-87.60756433 121.11797239 -96.99002052 145.05219702 -101.47265625 169.89453125 C-101.66601562 170.93480469 -101.859375 171.97507813 -102.05859375 173.046875 C-103.86279787 189.81235671 -103.48412549 207.47802942 -99.47265625 223.89453125 C-99.27929688 224.70760742 -99.0859375 225.52068359 -98.88671875 226.35839844 C-93.27439291 249.33602258 -82.64029164 270.27517822 -70.16015625 290.26953125 C-57.97181323 310.38381987 -57.87092997 331.21933404 -57.47265625 353.89453125 C-47.56967831 344.27689335 -43.23903115 334.89890839 -43.03515625 321.14453125 C-43.20235293 301.38269982 -53.09858006 286.37124926 -63.60742188 270.44775391 C-84.37961809 238.73932283 -93.78312534 202.9858972 -86.44140625 165.18359375 C-83.65633349 152.3227722 -78.76987693 135.86445945 -68.47265625 126.89453125 C-67.81265625 126.56453125 -67.15265625 126.23453125 -66.47265625 125.89453125 C-66.83310825 130.43622642 -67.24259262 134.83109885 -68.20703125 139.2890625 C-76.23432767 176.66142837 -67.59201216 218.56373615 -47.47265625 250.89453125 C-36.02808684 268.57138457 -20.56726015 280.75041416 -2.69238281 291.328125 C8.22211236 297.78852256 17.9441839 304.85443469 26.69604492 314.08520508 C27.93969275 315.38776142 29.22983094 316.64562234 30.52734375 317.89453125 C31.18734375 317.89453125 31.84734375 317.89453125 32.52734375 317.89453125 C33.20344798 316.00204306 33.86784814 314.10537105 34.52734375 312.20703125 C34.89859375 311.15128906 35.26984375 310.09554688 35.65234375 309.0078125 C36.79930574 304.9823654 36.79930574 304.9823654 36.52734375 300.89453125 C32.54909815 295.83281335 26.92920099 292.63009028 21.58984375 289.14453125 C20.18629639 288.2170105 20.18629639 288.2170105 18.75439453 287.27075195 C14.07104413 284.18354083 9.3617145 281.1434939 4.61181641 278.15991211 C-13.69878021 266.61445594 -26.00102409 252.88875561 -31.28613281 231.56030273 C-36.34622126 207.93471696 -29.74653559 186.05296269 -20.39526367 164.48168945 C-17.64684423 158.10292012 -15.56311096 151.96832376 -14.13525391 145.16235352 C-13.91659668 144.41397217 -13.69793945 143.66559082 -13.47265625 142.89453125 C-12.81265625 142.56453125 -12.15265625 142.23453125 -11.47265625 141.89453125 C-11.33690186 142.47944336 -11.20114746 143.06435547 -11.0612793 143.66699219 C-10.43757327 146.32863059 -9.79903657 148.98649623 -9.16015625 151.64453125 C-8.94681641 152.56492188 -8.73347656 153.4853125 -8.51367188 154.43359375 C-8.29775391 155.32304687 -8.08183594 156.2125 -7.859375 157.12890625 C-7.66561279 157.94584961 -7.47185059 158.76279297 -7.2722168 159.60449219 C-6.38947815 162.1327635 -5.17509903 163.84418904 -3.47265625 165.89453125 C0.03974056 162.04938106 1.6434905 158.38693617 2.83984375 153.39453125 C3.01080566 152.69255615 3.18176758 151.99058105 3.35791016 151.26733398 C5.16133113 143.12615011 4.49192435 135.50616883 2.46484375 127.45703125 C0.84126521 120.82741887 -0.16669103 112.35055635 2.890625 106.11328125 C5.54034405 102.52129934 8.29391295 100.30567485 12.52734375 98.89453125 C12.70910156 99.83554688 12.89085937 100.7765625 13.078125 101.74609375 C13.32949219 102.99132812 13.58085937 104.2365625 13.83984375 105.51953125 C14.08347656 106.74929687 14.32710938 107.9790625 14.578125 109.24609375 C15.50201989 112.79719593 16.76629345 115.68813714 18.52734375 118.89453125 C18.85734375 118.89453125 19.18734375 118.89453125 19.52734375 118.89453125 C19.82125 117.115625 19.82125 117.115625 20.12109375 115.30078125 C22.77106112 100.51165899 27.26728154 86.48197912 38.52734375 75.89453125 C39.130625 75.29511719 39.73390625 74.69570312 40.35546875 74.078125 C45.49097919 69.24531741 51.25027853 66.04460258 57.52734375 62.89453125 C52.33302143 58.54253147 48.80787391 57.5187728 42.14453125 57.625 C31.96994653 58.67283037 24.30934291 67.54991946 18.21484375 75.01953125 C17.47363281 75.95023437 16.73242188 76.8809375 15.96875 77.83984375 C5.93643181 90.39228027 -4.57287078 102.42586446 -17.37890625 112.23828125 C-18.06984375 112.78484375 -18.76078125 113.33140625 -19.47265625 113.89453125 C-20.05015625 114.30703125 -20.62765625 114.71953125 -21.22265625 115.14453125 C-23.2277422 117.95165157 -22.9175044 121.06536505 -22.97265625 124.39453125 C-23.49388531 136.32814384 -26.99353178 145.32599489 -32.41015625 155.8359375 C-40.07101296 170.76396801 -43.69744449 184.43955803 -44.65136719 201.15014648 C-44.74853027 202.60529663 -44.74853027 202.60529663 -44.84765625 204.08984375 C-44.89664063 204.96656738 -44.945625 205.84329102 -44.99609375 206.74658203 C-45.47265625 208.89453125 -45.47265625 208.89453125 -48.47265625 210.89453125 C-48.58738281 210.23582031 -48.70210937 209.57710937 -48.8203125 208.8984375 C-49.47491044 205.88415118 -50.32948255 202.96714144 -51.23730469 200.02050781 C-60.89881412 168.59606277 -57.24060808 137.30586017 -51.50537109 105.52514648 C-51.37247681 104.78503326 -51.23958252 104.04492004 -51.10266113 103.28237915 C-50.8508107 101.88644046 -50.59555308 100.49111063 -50.33630371 99.0965271 C-49.76342227 95.93791694 -49.47265625 93.12542938 -49.47265625 89.89453125 C-48.55484375 90.25546875 -47.63703125 90.61640625 -46.69140625 90.98828125 C-36.2550757 95.28339496 -36.2550757 95.28339496 -25.35546875 94.125 C-21.48200824 92.34434324 -17.98471999 90.41142049 -15.47265625 86.89453125 C-14.66499747 83.24731429 -14.66499747 83.24731429 -14.47265625 79.89453125 C-15.23449219 79.92933594 -15.99632812 79.96414062 -16.78125 80 C-24.52364173 80.20298405 -31.4714567 80.32097285 -37.59375 75.078125 C-46.8689489 65.27692238 -52.35022461 53.17881721 -52.84765625 39.64453125 C-52.56374196 32.25093006 -50.07542397 26.79317612 -45.08203125 21.3671875 C-40.44289555 17.12215313 -35.27565378 16.11014644 -29.22265625 15.64453125 C-21.69222853 16.14655976 -15.01970796 18.71663392 -9.47265625 23.89453125 C-5.37936979 29.22865046 -3.1934919 34.94825637 -1.28515625 41.33203125 C-0.40953525 44.21952297 0.51741034 47.04835526 1.52734375 49.89453125 C2.18734375 50.22453125 2.84734375 50.55453125 3.52734375 50.89453125 C5.65942266 42.36621562 3.04300832 34.11557212 -1.16015625 26.58203125 C-6.64884274 18.15973646 -13.84268695 13.1682621 -23.42578125 10.3125 C-37.18344041 7.503207 -49.46383562 12.43107536 -58.47265625 22.89453125 Z M55.10546875 94.76171875 C48.7258664 102.95512961 43.19455431 111.2477006 43.5703125 121.9296875 C44.02884948 140.56085074 44.02884948 140.56085074 40.43359375 148.49609375 C37.97838057 154.99394244 38.89417423 161.95799848 41.27734375 168.33203125 C42.91824445 171.94550406 44.69493805 175.06212555 47.52734375 177.89453125 C48.18734375 177.89453125 48.84734375 177.89453125 49.52734375 177.89453125 C49.86507812 176.7859375 50.2028125 175.67734375 50.55078125 174.53515625 C51.00111909 173.07155827 51.45165008 171.6080197 51.90234375 170.14453125 C52.1240625 169.41492188 52.34578125 168.6853125 52.57421875 167.93359375 C53.65663731 164.43165136 54.71906099 161.10550064 56.52734375 157.89453125 C57.51734375 157.89453125 58.50734375 157.89453125 59.52734375 157.89453125 C59.91664063 158.72855469 60.3059375 159.56257813 60.70703125 160.421875 C67.14852051 173.37906422 75.99518359 181.32178434 89.84375 186.01953125 C93.80674978 186.96090129 97.21239126 187.05906319 101.27734375 186.95703125 C108.23657022 186.79760674 108.23657022 186.79760674 111.52734375 187.89453125 C111.20436241 196.06595905 109.82830593 200.59356907 103.90234375 206.51953125 C94.11376589 214.13015054 80.72222547 215.67438138 68.76171875 214.4296875 C59.47527911 212.89316307 52.0064339 209.53094701 44.52734375 203.89453125 C43.66109375 203.31703125 42.79484375 202.73953125 41.90234375 202.14453125 C31.25834037 192.06073857 26.82670318 178.71866294 23.52734375 164.89453125 C17.56759295 170.48362652 15.47776118 175.6361958 15.08984375 183.76953125 C15.45609211 194.04040915 20.39842048 203.65410965 27.50390625 210.9140625 C33.8262545 216.42167516 46.73430781 225.89453125 55.52734375 225.89453125 C55.00333984 227.43173828 55.00333984 227.43173828 54.46875 229 C54.00895339 230.36062262 53.54932695 231.72130276 53.08984375 233.08203125 C52.85974609 233.75556641 52.62964844 234.42910156 52.39257812 235.12304688 C48.07272248 247.9574006 47.56126455 261.83910138 53.62890625 274.125 C53.92539062 274.70894531 54.221875 275.29289063 54.52734375 275.89453125 C55.18734375 275.89453125 55.84734375 275.89453125 56.52734375 275.89453125 C57.84734375 273.25453125 59.16734375 270.61453125 60.52734375 267.89453125 C64.74949662 268.11674982 67.48262654 269.35550506 70.96484375 271.58203125 C91.70774462 284.48460947 116.83706154 287.97405482 140.77734375 288.20703125 C141.94966553 288.22483643 143.1219873 288.2426416 144.32983398 288.26098633 C157.61371377 288.24881217 170.70758923 285.44151481 180.52734375 275.89453125 C183.75458297 271.79630417 186.63004708 267.26349075 187.06640625 261.96484375 C186.0403908 258.02434962 182.70197421 255.71189447 179.7578125 253.078125 C176.82647808 250.2083948 175.8784093 247.70930456 174.52734375 243.89453125 C171.7779365 242.51982763 169.76008036 242.9154046 166.69140625 243.0859375 C137.9748939 244.50151306 113.92687191 241.62389908 87.52734375 229.89453125 C87.52734375 228.90453125 87.52734375 227.91453125 87.52734375 226.89453125 C88.33816406 226.74757813 89.14898437 226.600625 89.984375 226.44921875 C102.65393122 223.88285928 112.26614589 219.0389269 120.52734375 208.89453125 C123.40387886 204.45566077 124.23759827 200.13265837 123.52734375 194.89453125 C121.00419131 187.55869916 117.44951519 182.48342664 110.52734375 178.89453125 C106.52374789 177.18694262 102.44261581 175.71543884 98.33203125 174.2890625 C91.89882595 171.97439363 88.09635006 169.92125425 84.15234375 164.14453125 C77.91669397 155.44195948 71.02367872 150.26892432 61.71826172 145.17700195 C57.75806467 142.94117678 55.3715797 141.09454305 53.52734375 136.89453125 C53.05076477 131.74747822 53.94990445 127.72543911 55.52734375 122.89453125 C57.83718998 124.26600245 60.1383563 125.64307283 62.39453125 127.1015625 C71.79460623 133.15491818 80.53495997 135.39223071 91.58984375 136.35546875 C92.5029834 136.43531006 93.41612305 136.51515137 94.35693359 136.59741211 C96.17924647 136.75035907 98.00252341 136.89233704 99.82666016 137.02172852 C109.12306193 137.77776642 117.89314288 139.86937928 124.42578125 146.953125 C135.74067939 160.5006563 142.76450931 175.26573358 142.65234375 193.08203125 C142.65041016 193.82509521 142.64847656 194.56815918 142.64648438 195.33374023 C142.6005928 201.223796 142.23489659 207.04458547 141.52734375 212.89453125 C148.28202654 210.41367947 151.89796412 206.01242461 155.52734375 199.89453125 C156.49103264 197.14519348 157.15019604 194.36225818 157.77734375 191.51953125 C158.03644531 190.41544922 158.03644531 190.41544922 158.30078125 189.2890625 C158.72054625 187.49340109 159.12549794 185.69428748 159.52734375 183.89453125 C163.40932366 191.33990914 166.94626981 198.77215199 170.02734375 206.58203125 C174.24607664 217.11765911 179.85167188 229.5635793 190.83984375 234.33203125 C198.84596681 235.63754433 198.84596681 235.63754433 206.52734375 233.89453125 C204.70228141 227.24422461 202.06165844 222.16279584 197.96484375 216.64453125 C197.4339917 215.91218262 196.90313965 215.17983398 196.35620117 214.42529297 C194.76147927 212.23687023 193.14894982 210.06308752 191.52734375 207.89453125 C190.83850098 206.97172363 190.83850098 206.97172363 190.13574219 206.03027344 C185.85056653 200.31991576 181.41972212 194.74681822 176.83984375 189.26953125 C172.5712883 184.08252119 168.91797521 178.69004667 165.52734375 172.89453125 C165.06457031 172.11851562 164.60179687 171.3425 164.125 170.54296875 C159.09088169 161.39280841 157.01402263 150.91779168 155.65234375 140.64453125 C154.28260966 131.90205451 150.50179389 123.26484736 143.24609375 117.88671875 C140.54571015 116.32786095 138.65252337 115.82942334 135.52734375 115.89453125 C131.28726632 117.13731257 129.08768993 118.2096637 126.27734375 121.64453125 C125.02754294 123.9655899 123.93690326 126.18198006 122.91796875 128.59765625 C122.4590625 129.685625 122.00015625 130.77359375 121.52734375 131.89453125 C118.72726297 131.19001414 115.94004668 130.45773903 113.15234375 129.70703125 C112.35828125 129.51044922 111.56421875 129.31386719 110.74609375 129.11132812 C104.99836342 127.52826681 104.99836342 127.52826681 102.80859375 124.58203125 C102.21880757 118.94629667 106.38517588 114.2981119 109.52734375 109.89453125 C112.04267796 107.0391692 114.67599664 104.41260402 117.52734375 101.89453125 C117.03234375 100.90453125 117.03234375 100.90453125 116.52734375 99.89453125 C107.57561773 99.40327799 100.7788647 99.2795583 93.8515625 105.3671875 C89.56600892 109.86542364 87.51602323 115.08056831 85.52734375 120.89453125 C78.77719338 120.49746358 68.45349775 118.82068525 63.52734375 113.89453125 C63.52734375 106.07628892 68.10026399 101.37211534 73.3828125 96.01171875 C78.59370677 91.21984484 84.48592284 87.54825823 90.52734375 83.89453125 C87.26300488 80.40506557 85.28696823 79.10999547 80.46484375 78.51953125 C69.83356033 79.53203443 61.74553609 86.90073581 55.10546875 94.76171875 Z M-106.47265625 93.89453125 C-121.34500301 108.47766678 -121.34500301 108.47766678 -128.47265625 126.89453125 C-118.38328141 123.21924234 -110.30142274 115.05320215 -105.2734375 105.65234375 C-103.68114476 101.83372316 -102.92991238 98.81072722 -104.47265625 94.89453125 C-105.13265625 94.56453125 -105.79265625 94.23453125 -106.47265625 93.89453125 Z M97.52734375 151.89453125 C96.86734375 153.21453125 96.20734375 154.53453125 95.52734375 155.89453125 C98.37494102 158.93851454 100.2258093 160.78451526 104.5703125 160.9921875 C105.27800781 160.98058594 105.98570312 160.96898437 106.71484375 160.95703125 C107.97296875 160.93640625 109.23109375 160.91578125 110.52734375 160.89453125 C110.6554974 158.50925795 110.6554974 158.50925795 109.52734375 155.89453125 C105.60440437 153.08473714 102.35980218 151.89453125 97.52734375 151.89453125 Z M-5.47265625 209.89453125 C-5.93059505 223.1724771 -5.93059505 223.1724771 -2.47265625 235.89453125 C-2.15554687 236.67699219 -1.8384375 237.45945312 -1.51171875 238.265625 C5.36487781 253.50630887 18.45563366 267.63887434 33.52734375 274.89453125 C34.18734375 274.89453125 34.84734375 274.89453125 35.52734375 274.89453125 C34.0118468 259.13336302 23.63328169 245.28515695 14.52734375 232.89453125 C14.09099609 232.29979004 13.65464844 231.70504883 13.20507812 231.09228516 C7.73316189 223.69191286 2.01389855 216.44018905 -4.47265625 209.89453125 C-4.80265625 209.89453125 -5.13265625 209.89453125 -5.47265625 209.89453125 Z M164.15234375 308.83203125 C151.14903378 311.47391411 138.07895606 311.04544534 124.90234375 310.39453125 C123.89816406 310.34683594 122.89398438 310.29914063 121.859375 310.25 C119.41525549 310.13361336 116.97126032 310.01509182 114.52734375 309.89453125 C114.33984807 315.27940724 114.97352112 317.70284301 118.52734375 321.89453125 C125.91126779 327.29113466 132.91199174 327.1309259 141.71484375 327.20703125 C143.36323242 327.25053711 143.36323242 327.25053711 145.04492188 327.29492188 C152.82391938 327.35522418 159.38742136 326.47514795 165.43383789 321.24560547 C169.53870686 317.12124041 170.32653211 313.61766312 170.52734375 307.89453125 C168.26685908 307.89453125 166.36123219 308.34235857 164.15234375 308.83203125 Z " fill="#000000" transform="translate(253.47265625,43.10546875)"/>
<path d="M0 0 C3.99273934 0.66709159 7.14404021 2.70785763 10.5625 4.75 C38.32731737 20.86930798 67.4846749 23.20031808 99 21 C99.1875 27.671875 99.1875 27.671875 97.5 30.625 C86.30982782 41.25566357 73.88454923 40.51526387 59.25390625 40.31640625 C49.8606323 40.02344103 41.04640322 38.46900518 32 36 C31.26297852 35.80212891 30.52595703 35.60425781 29.76660156 35.40039062 C6.89899495 29.11662856 6.89899495 29.11662856 1 20 C-1.75216418 14.61873589 -2.50073351 10.00880214 -2 4 C-1 1.5 -1 1.5 0 0 Z " fill="#000000" transform="translate(325,278)"/>
</svg>
